<svg xmlns="http://www.w3.org/2000/svg" width="20" height="20" viewBox="0 0 20 20"><defs><style>.a{fill:#cad0d7;}</style></defs><g transform="translate(-0.008 -0.296)"><path class="a" d="M15.648,9.921H11.815a1.171,1.171,0,0,1-1.175-1.172V4.9A2.9,2.9,0,0,0,9.519,2.6a2.787,2.787,0,0,0-2.4-.516A9.377,9.377,0,1,0,18.468,13.46a2.8,2.8,0,0,0-.514-2.412,2.942,2.942,0,0,0-2.305-1.128Zm.365,2.919a6.844,6.844,0,1,1-8.282-8.3.253.253,0,0,1,.061-.008A.279.279,0,0,1,7.96,4.6a.389.389,0,0,1,.148.3V8.747a3.7,3.7,0,0,0,3.7,3.7h3.832a.394.394,0,0,1,.308.152A.263.263,0,0,1,16.013,12.84Z" transform="translate(0 -0.267)"/><path class="a" d="M22.141,6.325A8.494,8.494,0,0,0,16.18.36a1.7,1.7,0,0,0-2.161,1.626V5.949a2.53,2.53,0,0,0,2.53,2.53h3.979a1.693,1.693,0,0,0,1.613-2.154Z" transform="translate(-2.197)"/></g></svg>