<svg xmlns="http://www.w3.org/2000/svg" xmlns:xlink="http://www.w3.org/1999/xlink" width="19" height="20" viewBox="0 0 19 20"><defs><style>.a{fill:#eb5463;}.b{clip-path:url(#a);}</style><clipPath id="a"><rect class="a" width="19" height="20"/></clipPath></defs><g class="b"><path class="a" d="M9.5,0h0a1.273,1.273,0,0,1,1.3,1.249V5.414a1.3,1.3,0,0,1-2.59,0V1.249A1.273,1.273,0,0,1,9.5,0"/><path class="a" d="M12.519,4.114h0A1.2,1.2,0,0,0,13.1,5.152a6.528,6.528,0,0,1,2.294,9.159,7.057,7.057,0,0,1-9.5,2.212A6.529,6.529,0,0,1,3.6,7.363a6.787,6.787,0,0,1,2.277-2.2,1.216,1.216,0,0,0,.595-1.046A1.272,1.272,0,0,0,5.183,2.862a1.324,1.324,0,0,0-.7.193A8.974,8.974,0,0,0,1.431,15.671a9.7,9.7,0,0,0,13.081,2.948A8.974,8.974,0,0,0,17.569,6a9.338,9.338,0,0,0-3.057-2.948,1.327,1.327,0,0,0-1.793.391,1.227,1.227,0,0,0-.2.668"/></g></svg>