<svg xmlns="http://www.w3.org/2000/svg" width="20" height="20" viewBox="0 0 20 20"><defs><style>.a{fill:#cad0d7;}</style></defs><path class="a" d="M10,0A10.009,10.009,0,0,0,0,10c-.1,7.976,9.3,12.854,15.749,8.178a1.25,1.25,0,1,0-1.439-2.044A7.536,7.536,0,0,1,2.5,10C2.893.058,17.107.06,17.5,10v1.25a1.25,1.25,0,0,1-2.5,0V10c-.21-6.605-9.79-6.6-10,0a5.014,5.014,0,0,0,8.4,3.656A3.75,3.75,0,0,0,20,11.247V10A10.009,10.009,0,0,0,10,0Zm0,12.5A2.5,2.5,0,1,1,12.5,10,2.5,2.5,0,0,1,10,12.5Z" transform="translate(0.001)"/></svg>