<svg xmlns="http://www.w3.org/2000/svg" width="20" height="20.004" viewBox="0 0 20 20.004"><defs><style>.a{fill:#cad0d7;}</style></defs><path class="a" d="M15.417,0H4.583A4.611,4.611,0,0,0,0,4.627V12.2a4.611,4.611,0,0,0,4.583,4.627h1.2L9.2,19.71a1.241,1.241,0,0,0,1.6,0l3.417-2.884h1.2A4.611,4.611,0,0,0,20,12.2V4.627A4.611,4.611,0,0,0,15.417,0ZM17.5,12.2a2.093,2.093,0,0,1-2.083,2.1H13.764a1.243,1.243,0,0,0-.8.294L10,17.1,7.037,14.6a1.243,1.243,0,0,0-.8-.294H4.583A2.093,2.093,0,0,1,2.5,12.2V4.627a2.093,2.093,0,0,1,2.083-2.1H15.417a2.093,2.093,0,0,1,2.083,2.1Z"/><path class="a" d="M7.262,8.524H9.786A1.262,1.262,0,0,0,9.786,6H7.262a1.262,1.262,0,0,0,0,2.524Z" transform="translate(-1.016 -0.952)"/><path class="a" d="M14.834,11H7.262a1.262,1.262,0,0,0,0,2.524h7.572a1.262,1.262,0,1,0,0-2.524Z" transform="translate(-1.048 -1.746)"/></svg>