<svg xmlns="http://www.w3.org/2000/svg" width="20" height="20" viewBox="0 0 20 20"><defs><style>.a{fill:#cad0d7;}</style></defs><g transform="translate(0 -0.001)"><path class="a" d="M19.146,7.246l-5.9-5.9a4.589,4.589,0,0,0-6.482,0l-5.9,5.9A2.9,2.9,0,0,0,0,9.309v8.648A2.048,2.048,0,0,0,2.046,20H17.954A2.047,2.047,0,0,0,20,17.957V9.309A2.9,2.9,0,0,0,19.146,7.246ZM17.5,17.5H13.333V14.85a3.182,3.182,0,0,0-3.182-3.182h-.3A3.182,3.182,0,0,0,6.666,14.85h0V17.5H2.5V9.309a.421.421,0,0,1,.122-.3l5.9-5.9a2.083,2.083,0,0,1,2.946,0h0l5.9,5.9a.421.421,0,0,1,.122.3V17.5Z" transform="translate(0)"/></g></svg>