<svg xmlns="http://www.w3.org/2000/svg" width="20" height="20" viewBox="0 0 20 20"><defs><style>.a{fill:#cad0d7;}</style></defs><path class="a" d="M10,0A10,10,0,1,0,20,10,10,10,0,0,0,10,0Zm0,17.5A7.5,7.5,0,1,1,17.5,10,7.5,7.5,0,0,1,10,17.5Z"/><path class="a" d="M11.227,9.545h-.25a1.314,1.314,0,0,0-1.337,1.161,1.25,1.25,0,0,0,1.133,1.328v3.875a1.25,1.25,0,1,0,2.5,0V11.591a2.046,2.046,0,0,0-2.046-2.046Z" transform="translate(-1.606 -1.591)"/><path class="a" d="M11.544,7.894a1.429,1.429,0,1,0-1.011-.419A1.43,1.43,0,0,0,11.544,7.894Z" transform="translate(-1.686 -0.839)"/></svg>