<svg xmlns="http://www.w3.org/2000/svg" width="20" height="20" viewBox="0 0 20 20"><defs><style>.a{fill:#cad0d7;}</style></defs><path class="a" d="M8.333,6.667A1.667,1.667,0,1,1,10,8.333,1.667,1.667,0,0,1,8.333,6.667ZM20,11.145v4.291a3.758,3.758,0,0,1-1.448,2.995,3.541,3.541,0,0,1-3.062.645c-.037-.009-1.94-.682-1.94-.682a1.762,1.762,0,0,0-.957.009L8.01,19.825A4.4,4.4,0,0,1,6.783,20a4.25,4.25,0,0,1-1.333-.213l-2.282-.75A4.578,4.578,0,0,1,0,14.647v-3.4A4.6,4.6,0,0,1,1.422,7.885,4.412,4.412,0,0,1,3.344,6.833,6.737,6.737,0,0,1,5.281,1.978a6.617,6.617,0,0,1,9.438,0,6.74,6.74,0,0,1,1.941,4.71l.388.136A4.6,4.6,0,0,1,20,11.144ZM7.059,9.733,9.8,12.417a.283.283,0,0,0,.4,0l2.75-2.7a4.278,4.278,0,0,0-.013-5.985h0a4.121,4.121,0,0,0-5.882,0,4.283,4.283,0,0,0,0,6ZM17.5,11.144a2.083,2.083,0,0,0-1.293-1.965,6.688,6.688,0,0,1-1.487,2.312L11.957,14.2a2.77,2.77,0,0,1-3.9,0L5.3,11.506A6.765,6.765,0,0,1,3.833,9.272a1.976,1.976,0,0,0-.682.423A2.121,2.121,0,0,0,2.5,11.25v3.4a2.072,2.072,0,0,0,1.417,2.007l2.313.757a1.8,1.8,0,0,0,1.06.019l4.592-1.423a4.3,4.3,0,0,1,2.447.012l1.822.648a1.047,1.047,0,0,0,.865-.207,1.277,1.277,0,0,0,.483-1.024Z" transform="translate(0 0)"/></svg>