<svg xmlns="http://www.w3.org/2000/svg" width="20" height="20" viewBox="0 0 20 20"><defs><style>.a{fill:#cad0d7;}</style></defs><path class="a" d="M17.057.955,17.032.946,14.872.227A4.446,4.446,0,0,0,12.289.159L7.867,1.445a1.927,1.927,0,0,1-1.317-.112l-.417-.192A4.432,4.432,0,0,0,0,5.231v9.6a4.44,4.44,0,0,0,3.185,4.25l2.283.714A4.45,4.45,0,0,0,6.79,20a5.2,5.2,0,0,0,1.18-.16l4.613-1.273a1.917,1.917,0,0,1,1.041.008l1.883.543A3.636,3.636,0,0,0,20,15.583V5.128A4.44,4.44,0,0,0,17.057.955Zm-5.391,1.99v13.28l-3.333.921V3.89ZM3.9,16.689a1.938,1.938,0,0,1-1.4-1.856v-9.6a1.9,1.9,0,0,1,.86-1.607A1.947,1.947,0,0,1,4.443,3.29a1.788,1.788,0,0,1,.686.135l.7.3V17.293Zm13.6-1.106A1.139,1.139,0,0,1,16.146,16.7l-1.979-.559V2.627l2.062.686A1.936,1.936,0,0,1,17.5,5.128Z" transform="translate(0 0.001)"/></svg>