<svg xmlns="http://www.w3.org/2000/svg" width="20" height="20" viewBox="0 0 20 20"><defs><style>.a{fill:#cad0d7;}</style></defs><path class="a" d="M7.083,5.833A2.156,2.156,0,0,1,9.167,8.056c0,1.111-.932,1.111-2.083,1.111S5,9.167,5,8.056A2.156,2.156,0,0,1,7.083,5.833Zm3.75,2.222c0,1.111.933,1.111,2.083,1.111S15,9.167,15,8.056a2.156,2.156,0,0,0-2.083-2.222,2.156,2.156,0,0,0-2.083,2.222ZM20,10A10,10,0,1,0,10,20,10,10,0,0,0,20,10Zm-2.5,0A7.5,7.5,0,1,1,10,2.5,7.5,7.5,0,0,1,17.5,10Zm-3.279,4.213a1.25,1.25,0,0,0-.008-1.768,6.313,6.313,0,0,0-8.427,0,1.244,1.244,0,0,0-.013,1.75,1.258,1.258,0,0,0,1.763.032,3.828,3.828,0,0,1,4.925,0,1.25,1.25,0,0,0,1.759-.017Z"/></svg>