<svg xmlns="http://www.w3.org/2000/svg" width="21.001" height="20.999" viewBox="0 0 21.001 20.999"><defs><style>.a{fill:#cad0d7;stroke:rgba(0,0,0,0);stroke-miterlimit:10;}</style></defs><path class="a" d="M-2303.417,4201a4.587,4.587,0,0,1-4.584-4.583v-10.833a4.588,4.588,0,0,1,4.584-4.583h10.834a4.589,4.589,0,0,1,4.583,4.583v10.833a4.588,4.588,0,0,1-4.583,4.583Zm11.286-2.548a2.084,2.084,0,0,0,1.63-2.034v-10.833a2.082,2.082,0,0,0-2.083-2.083h-10.834a2.083,2.083,0,0,0-2.083,2.083v10.833a2.085,2.085,0,0,0,1.632,2.034,6.244,6.244,0,0,1,5.868-4.118A6.245,6.245,0,0,1-2292.131,4198.451Zm-9.619-9.535a3.75,3.75,0,0,1,3.75-3.75,3.75,3.75,0,0,1,3.75,3.75,3.754,3.754,0,0,1-3.75,3.75A3.75,3.75,0,0,1-2301.75,4188.917Zm2.5,0a1.25,1.25,0,0,0,1.25,1.25,1.251,1.251,0,0,0,1.25-1.25,1.251,1.251,0,0,0-1.25-1.25A1.25,1.25,0,0,0-2299.25,4188.917Z" transform="translate(2308.5 -4180.5)"/></svg>